# xmcd
#
# Track frame offsets:
#	150
#	16570
#	31843
#	46706
#	64199
#	78189
#	93032
#	109351
#	124225
#	139599
#	158536
#	177387
#	193928
#	210851
#	226704
#	239988
#	255044
#	269577
#	286785
#	304843
#
# Disc length: 4305
#
# Revision: 1
# Processed by: cddbd v1.5.1PL0 Copyright (c) Steve Scherf et al.
# Submitted via: VisiTrax 2.9.5.180 - For more info visit www.synapsa.com
# Normalized: r0:DSETVAR1
#
DISCID=fc10cf14
DTITLE=Various Artist - CDX 207 February 1999
DYEAR=1999
DGENRE=
TTITLE0=Jim Witter - All my life
TTITLE1=Mark Nesler - Baby ain't rocking me right
TTITLE2=Cledus T Judd - Did I shave my back for this
TTITLE3=Billy Ray Cyrus - Give my heart to you
TTITLE4=Deryl Dodd - Good idea tomorrow
TTITLE5=Montgomey Gentry - Hillbilly shoes
TTITLE6=Julie Reeves - It's about time
TTITLE7=Neal McCoy - I was
TTITLE8=SheDaisy - Little good-byes
TTITLE9=Sammy Kershaw/Lorrie Morgan - Maybe not tonight
TTITLE10=South Sixty Five - No easy goodbye
TTITLE11=Kelly Willis - Not forgotten you
TTITLE12=Allison Moorer - Pardon me
TTITLE13=Bellamy Brothers - Some broken hearts
TTITLE14=Monte Warden - Someday
TTITLE15=Randy Travis - Stranger in my mirror
TTITLE16=Beverly Ellis - This time a diamond won't cut it
TTITLE17=Brad Paisley - Who needs pictures
TTITLE18=Jeff Dugan - Don't tell her
TTITLE19=Michelle McCord - Love you just the way I am
EXTD=
EXTT0=
EXTT1=
EXTT2=
EXTT3=
EXTT4=
EXTT5=
EXTT6=
EXTT7=
EXTT8=
EXTT9=
EXTT10=
EXTT11=
EXTT12=
EXTT13=
EXTT14=
EXTT15=
EXTT16=
EXTT17=
EXTT18=
EXTT19=
PLAYORDER=
